HIERARCHY
ROOT hip
{
  OFFSET 0 0 0
  CHANNELS 6 Xposition Yposition Zposition Zrotation Yrotation Xrotation
  JOINT abdomen
  {
    OFFSET 0 20.6881 -0.73152
    CHANNELS 3 Zrotation Xrotation Yrotation
    JOINT chest
    {
      OFFSET 0 11.7043 -0.48768
      CHANNELS 3 Zrotation Xrotation Yrotation
      JOINT neck
      {
        OFFSET 0 22.1894 -2.19456
        CHANNELS 3 Zrotation Xrotation Yrotation
        JOINT head
        {
          OFFSET -0.24384 7.07133 1.2192
          CHANNELS 3 Zrotation Xrotation Yrotation
          JOINT leftEye
          {
            OFFSET 4.14528 8.04674 8.04672
            CHANNELS 3 Zrotation Xrotation Yrotation
            End Site
            {
              OFFSET 1 0 0
            }
          }
          JOINT rightEye
          {
            OFFSET -3.6576 8.04674 8.04672
            CHANNELS 3 Zrotation Xrotation Yrotation
            End Site
            {
              OFFSET 1 0 0
            }
          }
        }
      }
      JOINT rCollar
      {
        OFFSET -2.68224 19.2634 -4.8768
        CHANNELS 3 Zrotation Xrotation Yrotation
        JOINT rShldr
        {
          OFFSET -8.77824 -1.95073 1.46304
          CHANNELS 3 Zrotation Xrotation Yrotation
          JOINT rForeArm
          {
            OFFSET -28.1742 -1.7115 0.48768
            CHANNELS 3 Zrotation Xrotation Yrotation
            JOINT rHand
            {
              OFFSET -22.5879 0.773209 7.07136
              CHANNELS 3 Zrotation Xrotation Yrotation
              JOINT rThumb1
              {
                OFFSET -1.2192 -0.487915 3.41376
                CHANNELS 3 Zrotation Xrotation Yrotation
                JOINT rThumb2
                {
                  OFFSET -3.37035 -0.52449 3.41376
                  CHANNELS 3 Zrotation Xrotation Yrotation
                  End Site
                  {
                    OFFSET -1.78271 -1.18214 1.43049
                  }
                }
              }
              JOINT rIndex1
              {
                OFFSET -7.75947 0.938293 5.60832
                CHANNELS 3 Zrotation Xrotation Yrotation
                JOINT rIndex2
                {
                  OFFSET -2.54057 -0.884171 1.56538
                  CHANNELS 3 Zrotation Xrotation Yrotation
                  End Site
                  {
                    OFFSET -1.62519 -0.234802 1.16502
                  }
                }
              }
              JOINT rMid1
              {
                OFFSET -8.24714 1.18213 3.41376
                CHANNELS 3 Zrotation Xrotation Yrotation
                JOINT rMid2
                {
                  OFFSET -3.10165 -0.590103 1.0647
                  CHANNELS 3 Zrotation Xrotation Yrotation
                  End Site
                  {
                    OFFSET -2.48547 -0.328903 0.83742
                  }
                }
              }
              JOINT rRing1
              {
                OFFSET -8.82822 0.546677 1.51678
                CHANNELS 3 Zrotation Xrotation Yrotation
                JOINT rRing2
                {
                  OFFSET -2.60934 -0.819778 -0.0198488
                  CHANNELS 3 Zrotation Xrotation Yrotation
                  End Site
                  {
                    OFFSET -2.33842 -0.294052 0.168128
                  }
                }
              }
              JOINT rPinky1
              {
                OFFSET -8.27202 -0.0477905 -0.4584
                CHANNELS 3 Zrotation Xrotation Yrotation
                JOINT rPinky2
                {
                  OFFSET -1.82734 -0.647385 -0.700984
                  CHANNELS 3 Zrotation Xrotation Yrotation
                  End Site
                  {
                    OFFSET -1.69225 -0.51767 -0.607171
                  }
                }
              }
            }
          }
        }
      }
      JOINT lCollar
      {
        OFFSET 2.68224 19.2634 -4.8768
        CHANNELS 3 Zrotation Xrotation Yrotation
        JOINT lShldr
        {
          OFFSET 8.77824 -1.95073 1.46304
          CHANNELS 3 Zrotation Xrotation Yrotation
          JOINT lForeArm
          {
            OFFSET 28.1742 -1.7115 0.48768
            CHANNELS 3 Zrotation Xrotation Yrotation
            JOINT lHand
            {
              OFFSET 22.5879 0.773209 7.07136
              CHANNELS 3 Zrotation Xrotation Yrotation
              JOINT lThumb1
              {
                OFFSET 1.2192 -0.487915 3.41376
                CHANNELS 3 Zrotation Xrotation Yrotation
                JOINT lThumb2
                {
                  OFFSET 3.37035 -0.52449 3.41376
                  CHANNELS 3 Zrotation Xrotation Yrotation
                  End Site
                  {
                    OFFSET 1.78271 -1.18214 1.43049
                  }
                }
              }
              JOINT lIndex1
              {
                OFFSET 7.75947 0.938293 5.60832
                CHANNELS 3 Zrotation Xrotation Yrotation
                JOINT lIndex2
                {
                  OFFSET 2.54057 -0.884171 1.56538
                  CHANNELS 3 Zrotation Xrotation Yrotation
                  End Site
                  {
                    OFFSET 1.62519 -0.234802 1.16502
                  }
                }
              }
              JOINT lMid1
              {
                OFFSET 8.24714 1.18213 3.41376
                CHANNELS 3 Zrotation Xrotation Yrotation
                JOINT lMid2
                {
                  OFFSET 3.10165 -0.590103 1.0647
                  CHANNELS 3 Zrotation Xrotation Yrotation
                  End Site
                  {
                    OFFSET 2.48547 -0.328903 0.83742
                  }
                }
              }
              JOINT lRing1
              {
                OFFSET 8.82822 0.546677 1.51678
                CHANNELS 3 Zrotation Xrotation Yrotation
                JOINT lRing2
                {
                  OFFSET 2.60934 -0.819778 -0.0198488
                  CHANNELS 3 Zrotation Xrotation Yrotation
                  End Site
                  {
                    OFFSET 2.33842 -0.294052 0.168128
                  }
                }
              }
              JOINT lPinky1
              {
                OFFSET 8.27202 -0.0477905 -0.4584
                CHANNELS 3 Zrotation Xrotation Yrotation
                JOINT lPinky2
                {
                  OFFSET 1.82734 -0.647385 -0.700984
                  CHANNELS 3 Zrotation Xrotation Yrotation
                  End Site
                  {
                    OFFSET 1.69225 -0.51767 -0.607171
                  }
                }
              }
            }
          }
        }
      }
    }
  }
  JOINT rButtock
  {
    OFFSET -8.77824 4.35084 1.2192
    CHANNELS 3 Zrotation Xrotation Yrotation
    JOINT rThigh
    {
      OFFSET 0 -1.70687 -2.19456
      CHANNELS 3 Zrotation Xrotation Yrotation
      JOINT rShin
      {
        OFFSET 0 -36.8199 0.73152
        CHANNELS 3 Zrotation Xrotation Yrotation
        JOINT rFoot
        {
          OFFSET 0.73152 -45.1104 -5.12064
          CHANNELS 3 Zrotation Xrotation Yrotation
          End Site
          {
            OFFSET -1.1221 -3.69964 12.103
          }
        }
      }
    }
  }
  JOINT lButtock
  {
    OFFSET 8.77824 4.35084 1.2192
    CHANNELS 3 Zrotation Xrotation Yrotation
    JOINT lThigh
    {
      OFFSET 0 -1.70687 -2.19456
      CHANNELS 3 Zrotation Xrotation Yrotation
      JOINT lShin
      {
        OFFSET 0 -36.8199 0.73152
        CHANNELS 3 Zrotation Xrotation Yrotation
        JOINT lFoot
        {
          OFFSET -0.73152 -45.1104 -5.12064
          CHANNELS 3 Zrotation Xrotation Yrotation
          End Site
          {
            OFFSET 1.1221 -3.69964 12.103
          }
        }
      }
    }
  }
}
MOTION
Frames:	7
Frame Time:	0.00833333
187.862 84.7658 40.983 0.0 0.0 0.0 -0.385198 -0.00168812 -0.0109959 -0.106234 -0.0025671 -0.018405 6.76653e-16 0.0 -4.34841e-17 2.08724e-15 3.18055e-15 -1.38217e-16 -0.0 0.0 0.0 -0.0 0.0 0.0 3.46582e-16 4.27076e-18 9.93923e-17 9.1141e-15 2.23633e-16 1.98785e-16 1.31049e-13 -3.12092e-14 -3.18055e-14 1.44576e-12 6.80341e-14 -8.5875e-14 3.41921e-12 7.83119e-14 -2.44903e-13 5.89158e-12 1.33583e-13 -4.23809e-13 3.42108e-12 7.79236e-14 -2.48083e-13 7.73091 5.47488 0.417314 3.41944e-12 7.86193e-14 -2.44903e-13 2.90554 0.965183 0.102902 3.42446e-12 7.82218e-14 -2.40132e-13 10.2786 0.731801 0.0259123 3.41274e-12 8.0309e-14 -2.25819e-13 2.22167 -0.733487 -0.20892 2.49795e-16 3.49426e-18 -1.49089e-16 5.19907e-15 1.86361e-17 -1.39149e-15 1.22302e-13 4.29375e-14 0.0 1.45127e-12 -1.18277e-14 -1.01778e-13 3.41548e-12 6.9299e-14 -2.29e-13 5.9043e-12 1.24042e-13 -4.10292e-13 3.41393e-12 6.87795e-14 -2.22639e-13 -7.73091 5.47488 -0.417314 3.41726e-12 6.88789e-14 -2.35361e-13 -2.90554 0.965183 -0.102902 3.4198e-12 6.87795e-14 -2.38542e-13 -10.2786 0.731801 -0.0259123 3.42705e-12 7.31528e-14 -2.54444e-13 -2.22167 -0.733487 0.20892 -2.03217e-16 0.0 -3.88251e-19 0.221681 -2.58356 -0.0280816 -0.00748981 -0.872635 -0.0651421 -0.513144 3.45577 0.129352 2.03217e-16 0.0 3.88251e-19 -0.807744 -4.07085 0.0653902 0.00325553 1.82139 0.0244299 0.517678 2.24911 -0.105176
183.593 82.4539 34.8943 -35.0081 -87.1928 41.6598 -0.595183 0.381328 -1.14363 -0.0518487 0.219863 -0.355021 -2.77301 2.77392 -1.31698 3.48755 -7.10904 -1.56317 -0.0 0.0 0.0 -0.0 0.0 0.0 3.44777e-15 5.53342e-14 2.31673e-14 22.0334 2.30909 -1.1567 -2.47712 -0.914899 4.06799 0.0791372 6.26122 0.861236 -2.32343e-10 -1.64986e-10 2.49628e-10 -3.96795e-10 -2.85881e-10 4.34807e-10 -2.3234e-10 -1.64988e-10 2.49624e-10 7.73091 5.47488 0.417314 -2.32343e-10 -1.64987e-10 2.49628e-10 2.90554 0.965183 0.102902 -2.32339e-10 -1.64987e-10 2.49628e-10 10.2786 0.731801 0.0259123 -2.32349e-10 -1.64985e-10 2.49641e-10 2.22167 -0.733487 -0.20892 3.36627e-15 5.53338e-14 2.29756e-14 -23.027 -2.60302 -0.897815 2.17663 -0.769324 -3.60265 -0.345959 13.19 -1.68458 3.48933e-10 -1.18731e-10 -5.5694e-11 5.98081e-10 -2.0749e-10 -1.08521e-10 3.48929e-10 -1.18728e-10 -5.56841e-11 -7.73091 5.47488 -0.417314 3.48934e-10 -1.18729e-10 -5.56967e-11 -2.90554 0.965183 -0.102902 3.48935e-10 -1.18728e-10 -5.57003e-11 -10.2786 0.731801 -0.0259123 3.48942e-10 -1.18725e-10 -5.57122e-11 -2.22167 -0.733487 0.20892 -2.03217e-16 0.0 -3.88251e-19 -0.727085 -12.5604 -3.59024 0.016097 14.5518 0.153225 -1.04666 1.7937 -5.22632 2.03217e-16 0.0 3.88251e-19 -1.23239 -6.81276 -1.08229 -0.0442921 7.72845 -0.107114 0.532705 -1.44862 -0.07993
182.921 82.5577 34.8958 -35.0289 -87.2925 41.72 -0.804209 0.788736 -2.32836 -0.000665775 0.465704 -0.707799 -5.56625 5.70336 -2.72701 6.73009 -14.6013 -3.31536 -0.0 0.0 0.0 -0.0 0.0 0.0 6.98179e-15 1.18167e-13 4.66554e-14 45.4318 4.68577 -2.40018 -4.94027 -1.8589 8.34797 -0.0472633 12.9247 1.81353 -4.6046e-10 -3.24826e-10 4.78972e-10 -7.86506e-10 -5.62897e-10 8.34454e-10 -4.60455e-10 -3.24828e-10 4.78967e-10 7.73091 5.47488 0.417314 -4.60459e-10 -3.24828e-10 4.78971e-10 2.90554 0.965183 0.102902 -4.60457e-10 -3.24828e-10 4.78967e-10 10.2786 0.731801 0.0259123 -4.60465e-10 -3.24826e-10 4.78978e-10 2.22167 -0.733487 -0.20892 6.91495e-15 1.18167e-13 4.65249e-14 -47.4683 -5.57257 -1.81956 4.33803 -1.55445 -7.35773 0.232068 27.2671 -3.81683 6.89e-10 -2.31884e-10 -8.71015e-11 1.18126e-09 -4.05614e-10 -1.75294e-10 6.88993e-10 -2.31877e-10 -8.70878e-11 -7.73091 5.47488 -0.417314 6.88999e-10 -2.31879e-10 -8.71001e-11 -2.90554 0.965183 -0.102902 6.88999e-10 -2.31877e-10 -8.71042e-11 -10.2786 0.731801 -0.0259123 6.89005e-10 -2.31876e-10 -8.71118e-11 -2.22167 -0.733487 0.20892 -2.03217e-16 0.0 -3.88251e-19 -3.18987 -22.9409 -7.80474 -0.10554 30.9745 0.437124 -1.94592 0.0643513 -10.8773 2.03217e-16 0.0 3.88251e-19 -1.802 -9.74496 -2.31648 -0.0642021 14.0035 -0.250611 0.55106 -5.35305 -0.0615266
182.262 82.6469 34.9243 -34.4705 -87.4113 41.2171 -0.969745 1.14556 -3.40951 0.0647637 0.664628 -1.02832 -7.93336 8.30408 -3.98819 9.22817 -21.2612 -4.99414 -0.0 0.0 0.0 -0.0 0.0 0.0 9.65013e-15 1.65994e-13 6.93032e-14 66.3814 6.91595 -3.49271 -7.04454 -2.68941 12.2161 -0.354032 18.7662 2.7126 -7.03869e-10 -4.95116e-10 7.49374e-10 -1.20217e-09 -8.5791e-10 1.30527e-09 -7.03862e-10 -4.95119e-10 7.49368e-10 7.73091 5.47488 0.417314 -7.03867e-10 -4.95119e-10 7.49373e-10 2.90554 0.965183 0.102902 -7.03867e-10 -4.95119e-10 7.49365e-10 10.2786 0.731801 0.0259123 -7.03874e-10 -4.95117e-10 7.49374e-10 2.22167 -0.733487 -0.20892 9.59922e-15 1.65994e-13 6.92248e-14 -69.3276 -7.80134 -2.71582 6.24137 -2.27151 -10.8156 1.8654 39.4123 -6.37392 1.03997e-09 -3.5633e-10 -1.66624e-10 1.78244e-09 -6.2272e-10 -3.24742e-10 1.03996e-09 -3.56321e-10 -1.66607e-10 -7.73091 5.47488 -0.417314 1.03997e-09 -3.56324e-10 -1.66619e-10 -2.90554 0.965183 -0.102902 1.03997e-09 -3.56321e-10 -1.66624e-10 -10.2786 0.731801 -0.0259123 1.03997e-09 -3.56321e-10 -1.66628e-10 -2.22167 -0.733487 0.20892 -2.03217e-16 0.0 -3.88251e-19 -6.89891 -31.9798 -12.3546 -0.40649 45.3978 0.819176 -3.03538 -1.4501 -15.9347 2.03217e-16 0.0 3.88251e-19 -2.41812 -12.2788 -3.43302 -0.0537946 19.5422 -0.389708 0.572482 -8.84407 -0.029879
181.614 82.7072 34.9504 -34.6347 -87.56 41.4616 -1.05837 1.37756 -4.23118 0.159762 0.746351 -1.26811 -9.51243 10.1003 -4.8412 10.7817 -25.9059 -6.19381 -0.0 0.0 0.0 -0.0 0.0 0.0 1.01542e-14 1.76309e-13 8.98507e-14 81.0161 8.79064 -4.18846 -8.51439 -3.28621 15.0435 -0.668453 22.5703 3.34889 -9.85509e-10 -6.91532e-10 1.12242e-09 -1.68271e-09 -1.19791e-09 1.95401e-09 -9.85502e-10 -6.91536e-10 1.12241e-09 7.73091 5.47488 0.417314 -9.85508e-10 -6.91537e-10 1.12242e-09 2.90554 0.965183 0.102902 -9.85508e-10 -6.91536e-10 1.12241e-09 10.2786 0.731801 0.0259123 -9.85514e-10 -6.91534e-10 1.12242e-09 2.22167 -0.733487 -0.20892 1.01225e-14 1.7631e-13 8.9801e-14 -84.5318 -8.18591 -3.52036 7.68392 -2.84834 -13.5242 3.75021 46.8894 -8.63443 1.4182e-09 -5.0901e-10 -3.66435e-10 2.42863e-09 -8.87279e-10 -6.80878e-10 1.41818e-09 -5.08999e-10 -3.66416e-10 -7.73091 5.47488 -0.417314 1.41819e-09 -5.09003e-10 -3.66429e-10 -2.90554 0.965183 -0.102902 1.41819e-09 -5.09e-10 -3.66433e-10 -10.2786 0.731801 -0.0259123 1.4182e-09 -5.09001e-10 -3.66435e-10 -2.22167 -0.733487 0.20892 -2.03217e-16 0.0 -3.88251e-19 -10.551 -38.1603 -16.25 -0.792754 54.8254 1.23333 -3.96639 -2.52302 -19.4983 2.03217e-16 0.0 3.88251e-19 -2.90132 -13.8331 -4.20536 -0.0292306 23.2401 -0.499578 0.599839 -11.3015 0.0356226
180.963 82.7733 34.9686 -34.9415 -87.6898 41.8422 -1.05503 1.44056 -4.69227 0.295312 0.648166 -1.39551 -10.1185 10.7976 -5.09341 11.4836 -27.7767 -6.48756 -0.0 0.0 0.0 -0.0 0.0 0.0 6.55456e-15 1.34118e-13 1.10961e-13 86.7176 10.1898 -4.33348 -9.20757 -3.58824 16.4021 -0.777621 23.5324 3.52146 -1.40186e-09 -9.78611e-10 1.77941e-09 -2.39226e-09 -1.69436e-09 3.09534e-09 -1.40185e-09 -9.78614e-10 1.7794e-09 7.73091 5.47488 0.417314 -1.40186e-09 -9.78616e-10 1.77941e-09 2.90554 0.965183 0.102902 -1.40186e-09 -9.78614e-10 1.7794e-09 10.2786 0.731801 0.0259123 -1.40186e-09 -9.78612e-10 1.7794e-09 2.22167 -0.733487 -0.20892 6.55091e-15 1.34117e-13 1.10907e-13 -90.3008 -5.87878 -4.17939 8.54873 -3.23784 -15.1651 4.20913 47.8903 -9.06745 1.96283e-09 -7.5399e-10 -8.22378e-10 3.35686e-09 -1.30929e-09 -1.4809e-09 1.96282e-09 -7.53981e-10 -8.22359e-10 -7.73091 5.47488 -0.417314 1.96283e-09 -7.53986e-10 -8.22373e-10 -2.90554 0.965183 -0.102902 1.96283e-09 -7.53985e-10 -8.22378e-10 -10.2786 0.731801 -0.0259123 1.96283e-09 -7.53985e-10 -8.22379e-10 -2.22167 -0.733487 0.20892 -2.03217e-16 0.0 -3.88251e-19 -12.2635 -40.7758 -18.0192 -0.949058 57.3102 1.40057 -4.43061 -3.11838 -20.9884 2.03217e-16 0.0 3.88251e-19 -3.08835 -14.0189 -4.4584 -0.0160166 24.3599 -0.556632 0.637986 -12.3091 0.162258
180.316 82.8241 34.9749 -35.3969 -87.8098 42.3808 -0.98964 1.383 -4.89556 0.459097 0.422254 -1.44261 -10.0564 10.7123 -4.90975 11.688 -27.6784 -6.06796 -0.0 0.0 0.0 -0.0 0.0 0.0 7.4724e-17 5.44204e-14 1.32307e-13 86.0073 11.2512 -4.0784 -9.37575 -3.69149 16.7095 -0.698842 22.4675 3.34135 -1.91057e-09 -1.32787e-09 2.63253e-09 -3.25881e-09 -2.2981e-09 4.57694e-09 -1.91056e-09 -1.32788e-09 2.63252e-09 7.73091 5.47488 0.417314 -1.91057e-09 -1.32788e-09 2.63253e-09 2.90554 0.965183 0.102902 -1.91057e-09 -1.32787e-09 2.63252e-09 10.2786 0.731801 0.0259123 -1.91057e-09 -1.32787e-09 2.63253e-09 2.22167 -0.733487 -0.20892 1.0544e-16 5.4419e-14 1.32226e-13 -89.2592 -1.66024 -4.74599 9.02296 -3.50136 -16.0429 3.35516 44.2996 -7.94688 2.62023e-09 -1.06239e-09 -1.4571e-09 4.47612e-09 -1.83942e-09 -2.59062e-09 2.62021e-09 -1.06238e-09 -1.45708e-09 -7.73091 5.47488 -0.417314 2.62022e-09 -1.06239e-09 -1.45709e-09 -2.90554 0.965183 -0.102902 2.62022e-09 -1.06239e-09 -1.4571e-09 -10.2786 0.731801 -0.0259123 2.62023e-09 -1.06239e-09 -1.4571e-09 -2.22167 -0.733487 0.20892 -2.03217e-16 0.0 -3.88251e-19 -12.0225 -40.9864 -17.8405 -0.821661 54.8348 1.28221 -4.49186 -3.39806 -20.9904 2.03217e-16 0.0 3.88251e-19 -3.04455 -13.23 -4.33557 -0.0191645 23.6383 -0.571765 0.680607 -12.2811 0.331315
